<?xml version="1.0" encoding="iso-8859-1"?>
<!-- Generator: Adobe Illustrator 19.0.0, SVG Export Plug-In . SVG Version: 6.00 Build 0)  -->
<svg version="1.2" baseProfile="tiny" xmlns="http://www.w3.org/2000/svg" xmlns:xlink="http://www.w3.org/1999/xlink" x="0px"
	 y="0px" viewBox="0 0 600 600.2399902" xml:space="preserve">
<g id="&#x421;&#x43B;&#x43E;&#x439;_2">
	<g>
		<polygon fill="none" points="593.0793457,509.1462402 -6.9206748,509.1462402 10.1706743,420.1462402 610.1706543,420.1462402 		
			"/>
		<path fill="#010202" d="M160.8100586,420.1677246l-8.3876953,43.6787109h35.4135742l-2.097168,10.9199219h-46.3334961
			l10.4848633-54.5986328H160.8100586z"/>
		<path fill="#010202" d="M190.4160156,474.7663574l7.3242188-38.1416016l19.4633789-16.4570313h32.6831055l-10.4848633,54.5986328
			h-10.8422852l3.1303711-16.3017578h-27.2231445l-3.1303711,16.3017578H190.4160156z M233.7871094,447.5446777
			l3.1601563-16.4570313h-16.3808594l-12.9541016,10.9980469l-1.0483398,5.4589844H233.7871094z"/>
		<path fill="#010202" d="M247.1992188,474.7663574l10.4848633-54.5986328h43.6040039l4.3193359,5.5380859l-5.2426758,27.2998047
			l-6.4311523,5.4589844h-32.6831055l-3.1303711,16.3017578H247.1992188z M290.5703125,447.5446777l3.1601563-16.4570313
			h-27.2226563l-3.1601563,16.4570313H290.5703125z"/>
		<path fill="#010202" d="M324.6074219,420.1677246l-8.3867188,43.6787109h35.4130859l-2.0966797,10.9199219H303.203125
			l10.484375-54.5986328H324.6074219z"/>
		<path fill="#010202" d="M354.2138672,474.7663574l7.3242188-38.1416016l19.4638672-16.4570313h32.6826172l-10.4853516,54.5986328
			h-10.8417969l3.1308594-16.3017578h-27.2236328l-3.1298828,16.3017578H354.2138672z M397.5849609,447.5446777
			l3.1601563-16.4570313h-16.3808594l-12.9541016,10.9980469l-1.0488281,5.4589844H397.5849609z"/>
		<path fill="#010202" d="M416.3789063,474.7663574l-4.3476563-5.3818359l2.0957031-10.9199219h10.921875l-1.0332031,5.3818359
			h27.2226563l2.0820313-10.8408203h-32.7617188l-4.6337891-3.9003906l4.4931641-23.3994141l6.4462891-5.5380859h38.2216797
			l4.3183594,5.5380859l-2.0820313,10.8408203h-10.8417969l1.0478516-5.4589844h-27.2226563l-2.0966797,10.9199219h32.6835938
			l4.3339844,5.4589844l-4.2089844,21.9179688l-6.4160156,5.3818359H416.3789063z"/>
	</g>
</g>
<g id="&#x421;&#x43B;&#x43E;&#x439;_7">
	<g id="XMLID_3_">
		<g>
			<path d="M425.6216736,165.156662l-26.480011,15.4100037c-20.0899963-30.6900024-54.7799988-50.9700012-94.1999817-50.9700012
				c-17.4500122,0-33.9700012,3.9700012-48.710022,11.0599976c20.2799988-14.3499985,45.0400085-22.7699966,71.7700195-22.7699966
				C367.581665,117.8866653,402.8416748,136.3666687,425.6216736,165.156662z"/>
			<path d="M432.5316772,174.7966614c12.5799866,19.4400024,19.8799744,42.6000061,19.8799744,67.4700012
				c0,68.6900024-55.6999817,124.3800049-124.4099731,124.3800049c-27.5,0-52.9100037-8.9100037-73.5000153-24.0100098
				c15.1699982,7.6199951,32.3000031,11.9100037,50.4400177,11.9100037c62.1299744,0,112.5-50.3599854,112.5-112.4799957
				c0-18.4499969-4.4400024-35.8699951-12.3300171-51.2299957L432.5316772,174.7966614z"/>
		</g>
		<g>
		</g>
	</g>
	<path fill="none" d="M620.5,231.7400055"/>
</g>
<g id="&#x421;&#x43B;&#x43E;&#x439;_4">
	<g id="XMLID_1_">
		<g>
			<path d="M174.7200012,320.6400146l-60.4199982,34.9099731c-1.6600037,0.960022-3.7200012,0.5100098-4.6000061-1.0099792
				c-0.8799973-1.5200195-0.25-3.5299988,1.4200058-4.4900208l60.4800034-34.9299927L174.7200012,320.6400146z"/>
			<path d="M493.7399902,132.6600037c0.8800049,1.519989,0.2400208,3.5299988-1.4199829,4.4899902L325.519989,233.5200043
				l55.3300171-14.8300018c0.6999817-0.1900024,1.6300049,1.0999908,2.0799866,2.8999939
				c0.4500122,1.8000031,0.2400208,3.4100037-0.4599915,3.6000061L327.25,239.9900055l25.4899902-0.0100098
				c0.4500122,0,0.8000183,1.5,0.7799988,3.3500061c-0.019989,1.8600006-0.3999939,3.3600006-0.8499756,3.3600006h-26.460022
				l56.3000183,15.0799866c0.6999817,0.1900024,0.8599854,1.7900085,0.3499756,3.5599976
				c-0.5099792,1.7700195-1.5,3.0700073-2.1999817,2.8800049l-55.1499939-14.769989l22.0499878,12.7200012
				c0.3900146,0.2200012-0.0599976,1.6900024-1.0100098,3.2900085c-0.9400024,1.5899963-2.019989,2.6999817-2.3999939,2.4700012
				l-22.1399841-12.7700195l40.5899963,40.5800171c0.519989,0.5099792-0.1400146,1.9700012-1.480011,3.25
				c-1.3299866,1.289978-2.8200073,1.9100037-3.3399963,1.3999939l-40.3299866-40.3200073l12.6999817,21.980011
				c0.230011,0.3899841-0.9100037,1.4400024-2.5099792,2.3399963c-1.6100159,0.9100037-3.1000061,1.3299866-3.3400269,0.9400024
				l-12.6499939-21.8999939l14.8099976,55.2299805c0.1900024,0.7000122-1.1099854,1.6300049-2.9100037,2.0800171
				c-1.789978,0.4499817-3.3999939,0.2399902-3.5899963-0.460022l-14.8099976-55.2200012l0.0100098,25.4900208
				c0,0.4499817-1.5,0.7999878-3.3500061,0.7799988c-1.8500061-0.0200195-3.3500061-0.3999939-3.3500061-0.8500061
				l-0.0099792-25.4299927l-14.8200073,55.3500061c-0.1900024,0.7099915-1.7799988,0.8599854-3.5599976,0.3499756
				c-1.7799988-0.5099792-3.0599976-1.5-2.8800049-2.1999817l14.9199829-55.7200012l-12.8899841,22.3399963
				c-0.2200012,0.3999939-1.6900024-0.0599976-3.2799988-1s-2.6900024-2.0100098-2.4700012-2.3900146l12.980011-22.5
				L245.5,304.2399902c-0.5099945,0.5100098-1.9700012-0.1499939-3.2599945-1.4899902
				c-1.2799988-1.3299866-1.9100037-2.8200073-1.3899994-3.3399963L281,259.2399902l-77.6699982,44.8699951L200.3600006,298.5
				l79.0699921-45.6900024L222.75,268.0100098c-0.7100067,0.1900024-1.6399994-1.1100159-2.0800018-2.9200134
				c-0.4499969-1.7799988-0.2400055-3.3899841,0.4600067-3.5799866l55.2200012-14.8100128l-25.5,0.0100098
				c-0.4500122,0-0.7900085-1.5-0.7700043-3.3600006c0.0200043-1.8400116,0.3999939-3.3400116,0.8499908-3.3400116L275.3299866,240
				l-54.3999939-14.5599976c-0.7099915-0.1900024-0.8599854-1.7900085-0.3499908-3.5599976
				c0.5099945-1.7900085,1.4900055-3.0700073,2.1999969-2.8800049l55.2900085,14.8000031l-22.1100006-12.7600098
				c-0.3899994-0.219986,0.0599823-1.6999969,0.9999847-3.2899933s2.0200195-2.6999969,2.4100037-2.4799957l21.9400024,12.6599884
				l-40.4799957-40.4599915c-0.5099945-0.5099945,0.1499939-1.9700012,1.4799957-3.2599945
				c1.3399963-1.280014,2.8300018-1.9000092,3.3500061-1.3899994l40.519989,40.5099945l-12.7999878-22.1699982
				c-0.2200012-0.3899994,0.8999939-1.4400024,2.519989-2.3399963c1.6100159-0.9100037,3.0899963-1.3300018,3.3200073-0.9400024
				l12.7999878,22.1599884l-14.8799744-55.4899902c-0.1900024-0.7100067,1.1099854-1.6399994,2.9099731-2.0800018
				c1.7900085-0.4499969,3.4000244-0.2400055,3.5900269,0.4599915l14.8099976,55.2200012l-0.0100098-25.5
				c0-0.4499969,1.5-0.7899933,3.3500061-0.769989c1.8500061,0.019989,3.3500061,0.3999939,3.3500061,0.8499908
				l0.0099792,25.4300079l14.8200073-55.3500061c0.1799927-0.6999969,1.7799988-0.8600006,3.5599976-0.3499908
				c1.769989,0.5099945,3.0599976,1.5,2.8800049,2.1999969l-14.6700134,54.769989l12.6400146-21.9099884
				c0.2200012-0.3800049,1.6900024,0.0599976,3.2799988,1s2.6999817,2.019989,2.4700012,2.4199982l-12.5,21.6600037
				l40.1300049-40.1399994c0.5099792-0.5100098,1.9700012,0.1499939,3.25,1.4799957
				c1.289978,1.3399963,1.9100037,2.8300018,1.3999939,3.3499908l-41.6100159,41.6200104l168.3400269-97.2600098
				C490.7999878,130.6900024,492.8599854,131.1399994,493.7399902,132.6600037z"/>
		</g>
		<g>
		</g>
	</g>
</g>
<g id="&#x421;&#x43B;&#x43E;&#x439;_5">
	<g id="XMLID_5_">
		<g>
			<path d="M408.9599915,346.9549866c-26.8699951,26.9000244-64,43.5299988-105.019989,43.5299988
				C221.9600067,390.4849854,155.5,324.0450134,155.5,242.0850067S221.9600067,93.6849976,303.9400024,93.6849976
				c37.9899902,0,72.6399841,14.2600021,98.8899841,37.7299957c-22.6599731-16.6699905-50.6499939-26.5199966-80.9499817-26.5199966
				c-75.5100098,0-136.7200012,61.2000046-136.7200012,136.6799927c0,75.4900055,61.2099915,136.6900177,136.7200012,136.6900177
				C354.9700012,378.2650146,385.3099976,366.5150146,408.9599915,346.9549866z"/>
		</g>
		<g>
		</g>
	</g>
</g>
</svg>
